<svg id="Layer_1" enable-background="new 0 0 512 512" viewBox="0 0 512 512" xmlns="http://www.w3.org/2000/svg"><path d="m458.934 59.417h-59.608v-22.882c0-19.87-16.165-36.035-36.035-36.035h-94.123c-19.87 0-36.035 16.166-36.035 36.035v22.881h-58.834c-19.291 0-34.985 15.694-34.985 34.985v167.133c0 3.77 3.056 6.826 6.826 6.826s6.826-3.056 6.826-6.826v-167.132c0-11.763 9.57-21.333 21.334-21.333h284.635c11.763 0 21.334 9.57 21.334 21.333v199.023c0 11.764-9.57 21.334-21.334 21.334h-196.73c-3.77 0-6.826 3.056-6.826 6.826s3.056 6.826 6.826 6.826h196.73c19.291 0 34.985-15.695 34.985-34.986v-199.023c-.001-19.291-15.695-34.985-34.986-34.985zm-212.15-22.882c0-12.342 10.042-22.383 22.384-22.383h94.123c12.342 0 22.384 10.041 22.384 22.383v22.881h-10.777v-22.881c0-6.291-5.315-11.606-11.607-11.606h-94.123c-6.292 0-11.607 5.315-11.607 11.606v22.881h-10.777zm114.462 22.882h-90.034v-20.836h90.034zm-19.372 49.936h-50.544c-3.77 0-6.826 3.056-6.826 6.826v45.623h-45.624c-3.77 0-6.826 3.056-6.826 6.826v50.543c0 3.77 3.056 6.826 6.826 6.826h45.624v45.624c0 3.77 3.056 6.826 6.826 6.826h50.543c3.77 0 6.826-3.056 6.826-6.826v-45.624h45.625c3.77 0 6.826-3.056 6.826-6.826v-50.543c0-3.77-3.056-6.826-6.826-6.826h-45.625v-45.623c0-3.77-3.056-6.826-6.825-6.826zm45.625 66.101v36.891h-45.625c-3.77 0-6.826 3.056-6.826 6.826v45.624h-36.892v-45.624c0-3.77-3.056-6.826-6.826-6.826h-45.624v-36.891h45.624c3.77 0 6.826-3.056 6.826-6.826v-45.623h36.892v45.623c0 3.77 3.056 6.826 6.826 6.826zm74.373 208.79c10.37 21.431 1.399 47.302-19.997 57.669-19.264 9.339-36.21 17.78-51.161 25.228-58.859 29.319-89.638 44.355-120.242 44.359-32.285.003-64.377-16.723-129.083-51.061-12.416-6.589-26.436-14.028-41.83-22.07h-74.652c-3.77 0-6.826-3.056-6.826-6.826s3.056-6.826 6.826-6.826h76.326c1.1 0 2.183.266 3.158.775 16.02 8.361 30.565 16.079 43.397 22.889 61.044 32.395 91.685 48.655 120.47 49.439.728.019 1.459.03 2.189.03 28.002 0 57.28-14.584 114.18-42.927 14.982-7.463 31.963-15.922 51.294-25.293 14.627-7.089 20.756-24.78 13.663-39.439-3.412-7.052-9.404-12.362-16.871-14.955-7.481-2.594-15.491-2.136-22.557 1.293l-102.089 49.485c-.873 1.472-1.816 2.904-2.864 4.269-8.502 11.004-21.306 16.773-34.237 16.773-9.214 0-18.491-2.927-26.332-8.975l-68.534-52.893c-2.984-2.303-3.536-6.59-1.233-9.574 2.303-2.985 6.59-3.537 9.574-1.234l68.533 52.892c12.887 9.939 31.466 7.555 41.414-5.319 1.21-1.576 2.252-3.275 3.117-5.06.04-.081.081-.161.119-.241.281-.594.545-1.197.785-1.808.012-.03.027-.057.039-.087 4.793-12.119 1.099-26.091-9.411-34.216-31.793-24.512-63.592-49.056-95.392-73.602l-1.269-.98c-4.42-3.402-9.095-4.989-14.704-4.989h-152.765c-3.77 0-6.826-3.056-6.826-6.826s3.056-6.826 6.826-6.826h152.763c8.658 0 16.193 2.561 23.037 7.828l1.277.986c31.798 24.543 63.596 49.087 95.393 73.603 12.039 9.306 17.969 23.856 16.609 38.238l90.211-43.728c10.346-5.02 22.065-5.699 32.992-1.906 10.916 3.789 19.681 11.568 24.683 21.905z"/></svg>